<?xml version="1.0" standalone="no"?>
<!DOCTYPE svg PUBLIC "-//W3C//DTD SVG 20010904//EN"
 "http://www.w3.org/TR/2001/REC-SVG-20010904/DTD/svg10.dtd">
<svg version="1.0" xmlns="http://www.w3.org/2000/svg"
 width="1080.000000pt" height="1080.000000pt" viewBox="0 0 1080.000000 1080.000000"
 preserveAspectRatio="xMidYMid meet">

<g transform="translate(0.000000,1080.000000) scale(0.100000,-0.100000)"
fill="#000000" stroke="none">
<path d="M4540 6860 l0 -350 430 0 430 0 0 85 0 85 -355 0 -355 0 0 195 0 195
452 0 451 0 -6 -502 c-4 -277 -7 -857 -7 -1290 l0 -788 -144 0 c-217 0 -353
32 -531 123 -162 84 -335 241 -443 403 -68 101 -154 277 -184 376 l-23 78 -78
0 c-75 0 -77 -1 -73 -22 30 -146 43 -195 68 -268 109 -309 354 -587 648 -735
199 -100 362 -138 590 -138 228 0 391 38 590 138 175 88 367 253 482 416 54
76 136 235 170 329 l23 65 3 638 3 637 329 0 330 0 0 340 0 340 -405 0 -405 0
0 -70 0 -70 340 0 340 0 0 -195 0 -195 -355 0 -355 0 0 -678 0 -678 -24 -70
c-31 -92 -89 -205 -141 -279 -96 -133 -291 -290 -470 -377 l-80 -39 -3 1326
-2 1325 -620 0 -620 0 0 -350z"/>
<path d="M3430 6377 c0 -662 3 -845 15 -933 57 -437 225 -789 519 -1093 179
-184 325 -291 551 -402 557 -274 1203 -274 1760 0 226 111 372 218 551 402
249 257 409 554 491 913 26 109 26 121 30 574 l4 462 -95 0 -95 0 -3 -412 c-5
-456 -9 -501 -74 -714 -88 -293 -239 -543 -458 -759 -170 -168 -351 -288 -566
-375 -220 -90 -425 -130 -660 -130 -465 0 -894 177 -1226 505 -219 216 -370
466 -458 759 -71 235 -70 217 -74 1074 l-3 772 306 0 305 0 0 90 0 90 -410 0
-410 0 0 -823z"/>
<path d="M4000 5820 l0 -100 320 0 320 0 0 -102 c1 -135 19 -213 74 -324 48
-93 87 -146 166 -223 47 -46 149 -101 188 -101 21 0 22 4 22 69 0 61 -3 70
-20 76 -79 25 -208 191 -256 330 -26 75 -28 93 -32 278 l-4 197 -389 0 -389 0
0 -100z"/>
</g>
</svg>
